<?xml version="1.0" encoding="utf-8"?>
<!-- Generator: Adobe Illustrator 26.0.3, SVG Export Plug-In . SVG Version: 6.00 Build 0)  -->
<svg version="1.1" id="Layer_1" xmlns="http://www.w3.org/2000/svg" xmlns:xlink="http://www.w3.org/1999/xlink" x="0px" y="0px"
	 viewBox="0 0 42.9 42.4" style="enable-background:new 0 0 42.9 42.4;" xml:space="preserve">
<style type="text/css">
	.st0{fill:none;stroke:#444444;stroke-width:3;stroke-miterlimit:10;}
</style>
<path class="st0" d="M12.9,29.9c1.9,4.3,5.1,7.9,9.1,10.3c4.2-2.5,7.6-6.3,9.4-10.9c-3,1.5-6.4,2.4-10,2.4
	C18.4,31.6,15.5,31,12.9,29.9z M30.8,12c-1.9-4-5-7.3-8.8-9.5c-3.6,2.1-6.5,5.2-8.4,8.9c2.4-1,5.1-1.5,7.9-1.5
	C24.8,9.9,28,10.6,30.8,12z M13.6,11.4C9,13.2,5.1,16.5,2.7,20.8c2.3,4,5.9,7.3,10.3,9.1c-1.1-2.6-1.8-5.5-1.8-8.5
	C11.2,17.7,12.1,14.4,13.6,11.4z M30.8,12c1.3,2.8,2.1,6,2.1,9.3c0,2.8-0.5,5.4-1.5,7.9c3.7-1.9,6.8-4.8,8.9-8.4
	C38.1,17,34.8,13.9,30.8,12z"/>
</svg>
